<svg width="530" height="189" viewBox="0 0 530 189" fill="none" xmlns="http://www.w3.org/2000/svg">
<rect width="530" height="189" rx="7" fill="#242637"/>
<mask id="mask0" mask-type="alpha" maskUnits="userSpaceOnUse" x="0" y="0" width="530" height="189">
<rect width="530" height="189" rx="7" fill="#242637"/>
</mask>
<g mask="url(#mask0)">
<path d="M392.583 49.9758C399.878 22.6189 401.967 -7.71632 402.325 -36H700.368V224.609H283.281C283.281 209.437 281.954 193.668 285.068 178.761C291.249 149.184 309.798 129.157 335.117 113.966C361.981 97.8475 384.122 81.704 392.583 49.9758Z" fill="#29ABFF"/>
<path d="M523.232 63.7692C551.55 59.745 576.307 54.1686 597.282 34H644.119L632.619 272.011L352.803 263.409C357.286 260.046 355.523 257.744 354.105 252.245C350.622 238.73 349.901 226.938 352.803 213.173C362.332 167.98 381.475 120.983 416.063 89.073C444.093 63.2125 488.159 68.7531 523.232 63.7692Z" fill="#DEF1FF"/>
<path d="M541.763 82.5048C565.527 79.8643 589.777 81.3709 613.374 78L602.216 272.328H391.085C391.085 259.694 386.494 248.082 387.046 234.969C388.592 198.25 403.137 164.061 427.745 136.951C457.457 104.216 498.396 87.3233 541.763 82.5048Z" fill="#00FFFF"/>
</g>
</svg>
