<svg width="1252" height="560" viewBox="0 0 1252 560" fill="none" xmlns="http://www.w3.org/2000/svg">
<path opacity="0.15" d="M11.41 264.36C15.4748 264.36 18.77 261.064 18.77 257C18.77 252.935 15.4748 249.64 11.41 249.64C7.34517 249.64 4.04999 252.935 4.04999 257C4.04999 261.064 7.34517 264.36 11.41 264.36Z" fill="white"/>
<path opacity="0.1" d="M171.36 47.72C175.425 47.72 178.72 44.4248 178.72 40.36C178.72 36.2952 175.425 33 171.36 33C167.295 33 164 36.2952 164 40.36C164 44.4248 167.295 47.72 171.36 47.72Z" stroke="white" stroke-miterlimit="10"/>
<path d="M658.503 1C647.353 54.45 656.123 114.88 693.653 154.53C734.513 197.7 798.733 207.54 858.003 212.03C917.273 216.52 980.483 219.38 1028.89 253.88C1058.82 275.2 1079.92 306.7 1097.11 339.18C1118.23 379.11 1135.65 423.15 1170.55 451.83C1199.49 475.62 1237.07 485.84 1273.84 492.97C1314.25 500.8 1355.24 505.66 1396.37 507.48" stroke="url(#paint0_radial)" stroke-miterlimit="10"/>
<path opacity="0.34" d="M8.36 258.72C12.4248 258.72 15.72 255.425 15.72 251.36C15.72 247.295 12.4248 244 8.36 244C4.29519 244 1 247.295 1 251.36C1 255.425 4.29519 258.72 8.36 258.72Z" stroke="white" stroke-miterlimit="10"/>
<path opacity="0.15" d="M1030.65 33.3C1033.77 33.3 1036.3 30.7704 1036.3 27.65C1036.3 24.5296 1033.77 22 1030.65 22C1027.53 22 1025 24.5296 1025 27.65C1025 30.7704 1027.53 33.3 1030.65 33.3Z" fill="white"/>
<path opacity="0.25" d="M887 560C884.791 560 883 558.209 883 556C883 553.791 884.791 552 887 552C889.209 552 891 553.791 891 556C891 558.209 889.209 560 887 560Z" fill="white"/>
<defs>
<radialGradient id="paint0_radial" cx="0" cy="0" r="1" gradientUnits="userSpaceOnUse" gradientTransform="translate(1024.94 254.442) scale(318.008)">
<stop offset="4.28388e-07" stop-color="white" stop-opacity="0.25"/>
<stop offset="1" stop-color="white" stop-opacity="0.03"/>
</radialGradient>
</defs>
</svg>
