<svg width="1256" height="798" viewBox="0 0 1256 798" fill="none" xmlns="http://www.w3.org/2000/svg">
<path opacity="0.5" d="M294.65 683.3C297.77 683.3 300.3 680.77 300.3 677.65C300.3 674.53 297.77 672 294.65 672C291.53 672 289 674.53 289 677.65C289 680.77 291.53 683.3 294.65 683.3Z" fill="white"/>
<path opacity="0.15" d="M52.6499 259.3C55.7703 259.3 58.2999 256.77 58.2999 253.65C58.2999 250.53 55.7703 248 52.6499 248C49.5295 248 46.9999 250.53 46.9999 253.65C46.9999 256.77 49.5295 259.3 52.6499 259.3Z" fill="white"/>
<path opacity="0.34" d="M1245.36 441.72C1249.42 441.72 1252.72 438.425 1252.72 434.36C1252.72 430.295 1249.42 427 1245.36 427C1241.3 427 1238 430.295 1238 434.36C1238 438.425 1241.3 441.72 1245.36 441.72Z" stroke="white" stroke-miterlimit="10"/>
<path opacity="0.15" d="M1248.41 447.36C1252.47 447.36 1255.77 444.065 1255.77 440C1255.77 435.935 1252.47 432.64 1248.41 432.64C1244.35 432.64 1241.05 435.935 1241.05 440C1241.05 444.065 1244.35 447.36 1248.41 447.36Z" fill="white"/>
<path d="M243.317 3.11912C208.326 45.0338 187.627 102.481 202.083 155.128C217.82 212.447 269.854 251.351 320.038 283.204C370.222 315.058 424.65 347.328 451.129 400.55C467.505 433.446 471.299 471.17 471.182 507.918C471.027 553.089 465.673 600.146 482.97 641.875C497.31 676.485 525.66 703.188 554.748 726.782C586.719 752.708 620.6 776.285 656.035 797.247" stroke="url(#paint0_radial)" stroke-miterlimit="10"/>
<defs>
<radialGradient id="paint0_radial" cx="0" cy="0" r="1" gradientUnits="userSpaceOnUse" gradientTransform="translate(447.381 399.188) rotate(28.0726) scale(318.008)">
<stop offset="4.28388e-07" stop-color="white" stop-opacity="0.25"/>
<stop offset="1" stop-color="white" stop-opacity="0.03"/>
</radialGradient>
</defs>
</svg>
