<svg width="1440" height="3512" viewBox="0 0 1440 3512" fill="none" xmlns="http://www.w3.org/2000/svg">
<path d="M276.317 2717.12C241.326 2759.03 220.627 2816.48 235.083 2869.13C250.82 2926.45 302.854 2965.35 353.038 2997.2C403.222 3029.06 457.65 3061.33 484.129 3114.55C500.505 3147.45 504.299 3185.17 504.182 3221.92C504.027 3267.09 498.673 3314.15 515.97 3355.88C530.31 3390.49 558.66 3417.19 587.748 3440.78C619.719 3466.71 653.6 3490.29 689.035 3511.25" stroke="url(#paint0_radial)" stroke-miterlimit="10"/>
<path d="M-227 1786.31C-205.49 1789.01 -183.97 1791.72 -162.46 1794.42C-113.76 1800.54 -61.03 1805.9 -18.57 1781.3C56.73 1737.66 60.91 1625.03 127.99 1569.58C159.11 1543.85 200.08 1533.75 239.92 1527.16C291 1518.7 342.83 1514.76 394.6 1515.4C459.28 1516.2 524.98 1524.02 587.99 1509.39C634.89 1498.5 678 1475.63 720.49 1453" stroke="url(#paint1_radial)" stroke-miterlimit="10"/>
<path d="M1120 1976.43C1157.13 1964.91 1197.2 1951.24 1218.52 1918.73C1225.47 1908.13 1230.02 1896 1237.81 1886C1254.53 1864.52 1283.26 1856.34 1310.38 1853.98C1389.3 1847.1 1466.18 1878.33 1544.89 1887.29" stroke="url(#paint2_radial)" stroke-miterlimit="10"/>
<path opacity="0.5" d="M1281.65 2051.3C1284.77 2051.3 1287.3 2048.77 1287.3 2045.65C1287.3 2042.53 1284.77 2040 1281.65 2040C1278.53 2040 1276 2042.53 1276 2045.65C1276 2048.77 1278.53 2051.3 1281.65 2051.3Z" fill="white"/>
<path opacity="0.15" d="M1218.65 33.3C1221.77 33.3 1224.3 30.7704 1224.3 27.65C1224.3 24.5296 1221.77 22 1218.65 22C1215.53 22 1213 24.5296 1213 27.65C1213 30.7704 1215.53 33.3 1218.65 33.3Z" fill="white"/>
<path opacity="0.25" d="M1075 560C1072.79 560 1071 558.209 1071 556C1071 553.791 1072.79 552 1075 552C1077.21 552 1079 553.791 1079 556C1079 558.209 1077.21 560 1075 560Z" fill="white"/>
<path d="M846.503 1C835.353 54.45 844.123 114.88 881.653 154.53C922.513 197.7 986.733 207.54 1046 212.03C1105.27 216.52 1168.48 219.38 1216.89 253.88C1246.82 275.2 1267.92 306.7 1285.11 339.18C1306.23 379.11 1323.65 423.15 1358.55 451.83C1387.49 475.62 1425.07 485.84 1461.84 492.97C1502.25 500.8 1543.24 505.66 1584.37 507.48" stroke="url(#paint3_radial)" stroke-miterlimit="10"/>
<path opacity="0.34" d="M196.36 258.72C200.425 258.72 203.72 255.425 203.72 251.36C203.72 247.295 200.425 244 196.36 244C192.295 244 189 247.295 189 251.36C189 255.425 192.295 258.72 196.36 258.72Z" stroke="white" stroke-miterlimit="10"/>
<path opacity="0.15" d="M199.41 264.36C203.475 264.36 206.77 261.064 206.77 257C206.77 252.935 203.475 249.64 199.41 249.64C195.345 249.64 192.05 252.935 192.05 257C192.05 261.064 195.345 264.36 199.41 264.36Z" fill="white"/>
<path opacity="0.24" d="M306.29 1728.58C311.973 1728.58 316.58 1723.97 316.58 1718.29C316.58 1712.61 311.973 1708 306.29 1708C300.607 1708 296 1712.61 296 1718.29C296 1723.97 300.607 1728.58 306.29 1728.58Z" stroke="white" stroke-width="1.3987" stroke-miterlimit="10"/>
<path opacity="0.1" d="M359.36 47.72C363.425 47.72 366.72 44.4248 366.72 40.36C366.72 36.2952 363.425 33 359.36 33C355.295 33 352 36.2952 352 40.36C352 44.4248 355.295 47.72 359.36 47.72Z" stroke="white" stroke-miterlimit="10"/>
<path opacity="0.14" d="M399.36 1959.72C403.425 1959.72 406.72 1956.42 406.72 1952.36C406.72 1948.3 403.425 1945 399.36 1945C395.295 1945 392 1948.3 392 1952.36C392 1956.42 395.295 1959.72 399.36 1959.72Z" stroke="white" stroke-miterlimit="10"/>
<path opacity="0.5" d="M327.65 3397.3C330.77 3397.3 333.3 3394.77 333.3 3391.65C333.3 3388.53 330.77 3386 327.65 3386C324.53 3386 322 3388.53 322 3391.65C322 3394.77 324.53 3397.3 327.65 3397.3Z" fill="white"/>
<path opacity="0.15" d="M85.65 2973.3C88.7704 2973.3 91.3 2970.77 91.3 2967.65C91.3 2964.53 88.7704 2962 85.65 2962C82.5296 2962 80 2964.53 80 2967.65C80 2970.77 82.5296 2973.3 85.65 2973.3Z" fill="white"/>
<path opacity="0.34" d="M1278.36 3155.72C1282.42 3155.72 1285.72 3152.42 1285.72 3148.36C1285.72 3144.3 1282.42 3141 1278.36 3141C1274.3 3141 1271 3144.3 1271 3148.36C1271 3152.42 1274.3 3155.72 1278.36 3155.72Z" stroke="white" stroke-miterlimit="10"/>
<path opacity="0.15" d="M1281.41 3161.36C1285.47 3161.36 1288.77 3158.06 1288.77 3154C1288.77 3149.94 1285.47 3146.64 1281.41 3146.64C1277.35 3146.64 1274.05 3149.94 1274.05 3154C1274.05 3158.06 1277.35 3161.36 1281.41 3161.36Z" fill="white"/>
<defs>
<radialGradient id="paint0_radial" cx="0" cy="0" r="1" gradientUnits="userSpaceOnUse" gradientTransform="translate(480.381 3113.19) rotate(28.0726) scale(318.008)">
<stop offset="4.28388e-07" stop-color="white" stop-opacity="0.25"/>
<stop offset="1" stop-color="white" stop-opacity="0.03"/>
</radialGradient>
<radialGradient id="paint1_radial" cx="0" cy="0" r="1" gradientUnits="userSpaceOnUse" gradientTransform="translate(246.841 1626.31) scale(356.913)">
<stop offset="4.28388e-07" stop-color="white" stop-opacity="0.25"/>
<stop offset="1" stop-color="white" stop-opacity="0.03"/>
</radialGradient>
<radialGradient id="paint2_radial" cx="0" cy="0" r="1" gradientUnits="userSpaceOnUse" gradientTransform="translate(1332.4 1914.71) scale(156.598)">
<stop offset="4.28388e-07" stop-color="white" stop-opacity="0.25"/>
<stop offset="1" stop-color="white" stop-opacity="0.03"/>
</radialGradient>
<radialGradient id="paint3_radial" cx="0" cy="0" r="1" gradientUnits="userSpaceOnUse" gradientTransform="translate(1212.94 254.442) scale(318.008)">
<stop offset="4.28388e-07" stop-color="white" stop-opacity="0.25"/>
<stop offset="1" stop-color="white" stop-opacity="0.03"/>
</radialGradient>
</defs>
</svg>
