<?xml version="1.0" standalone="no"?>
<!DOCTYPE svg PUBLIC "-//W3C//DTD SVG 20010904//EN"
 "http://www.w3.org/TR/2001/REC-SVG-20010904/DTD/svg10.dtd">
<svg version="1.0" xmlns="http://www.w3.org/2000/svg"
 width="1187.000000pt" height="1187.000000pt" viewBox="0 0 1187.000000 1187.000000"
 preserveAspectRatio="xMidYMid meet">
<metadata>
Created by potrace 1.14, written by Peter Selinger 2001-2017
</metadata>
<g transform="translate(0.000000,1187.000000) scale(0.100000,-0.100000)"
fill="#000000" stroke="none">
<path d="M609 9006 c-2 -2 -24 -6 -49 -9 -65 -8 -204 -63 -238 -94 -7 -7 -17
-13 -22 -13 -12 0 -150 -138 -176 -175 -50 -71 -97 -186 -112 -273 -6 -32 -9
-1043 -9 -2514 0 -2370 0 -2463 18 -2534 35 -136 97 -245 188 -332 50 -48 124
-102 139 -102 6 0 12 -4 14 -8 4 -10 130 -62 150 -62 8 0 18 -4 24 -10 7 -7
1828 -9 5404 -7 l5395 2 70 28 c39 16 78 31 88 34 9 3 17 9 17 14 0 5 6 9 13
9 22 0 142 102 191 164 55 69 107 172 132 261 16 55 17 250 18 2528 2 2266 1
2475 -15 2550 -52 257 -245 457 -509 528 -62 17 -342 18 -5396 18 -2932 1
-5333 -1 -5335 -3z"/>
</g>
</svg>
