<?xml version="1.0" standalone="no"?>
<!DOCTYPE svg PUBLIC "-//W3C//DTD SVG 20010904//EN"
 "http://www.w3.org/TR/2001/REC-SVG-20010904/DTD/svg10.dtd">
<svg version="1.0" xmlns="http://www.w3.org/2000/svg"
 width="128.000000pt" height="128.000000pt" viewBox="0 0 128.000000 128.000000"
 preserveAspectRatio="xMidYMid meet">
<metadata>
Created by potrace 1.11, written by Peter Selinger 2001-2013
</metadata>
<g transform="translate(0.000000,128.000000) scale(0.100000,-0.100000)"
fill="#000000" stroke="none">
<path d="M0 640 l0 -640 640 0 640 0 0 640 0 640 -640 0 -640 0 0 -640z m1028
198 c8 -8 12 -67 12 -200 0 -175 -1 -188 -19 -198 -13 -6 -152 -10 -385 -10
-318 0 -367 2 -380 16 -13 13 -16 45 -16 199 0 165 2 185 18 194 26 16 754 15
770 -1z m-268 -698 c0 -5 -2 -10 -4 -10 -3 0 -8 5 -11 10 -3 6 -1 10 4 10 6 0
11 -4 11 -10z"/>
<path d="M460 786 c0 -21 39 -46 72 -46 21 0 28 -5 28 -20 0 -18 -7 -20 -80
-20 -73 0 -80 -2 -80 -20 0 -18 7 -20 68 -20 40 0 73 -5 80 -12 7 -7 12 -34
12 -60 l0 -48 -131 0 -130 0 3 -27 3 -28 155 0 155 0 0 155 0 155 -77 3 c-64
2 -78 0 -78 -12z"/>
<path d="M664 787 c-2 -7 -3 -78 -2 -157 l3 -145 91 -3 c111 -3 116 1 112 90
l-3 63 -21 -34 -22 -33 -26 38 -26 39 0 -53 c0 -45 -3 -52 -20 -52 -19 0 -20
7 -20 95 0 86 2 95 19 95 10 0 30 -17 46 -41 l27 -42 31 47 c41 64 60 59 67
-18 5 -55 24 -86 52 -86 5 0 7 46 6 103 l-3 102 -153 3 c-119 2 -154 0 -158
-11z"/>
<path d="M300 676 c0 -90 8 -96 126 -96 87 0 94 1 94 20 0 18 -7 20 -68 20
-74 0 -92 10 -92 50 0 31 -25 70 -46 70 -11 0 -14 -15 -14 -64z"/>
</g>
</svg>
