<svg width="42" height="55" viewBox="0 0 42 55" fill="none" xmlns="http://www.w3.org/2000/svg">
<path d="M39.4628 31.48V37H19.3028V32.92L30.3428 21.4C30.9508 20.792 31.5108 20.168 32.0228 19.528C32.4388 18.984 32.8228 18.376 33.1748 17.704C33.5268 17 33.7028 16.312 33.7028 15.64C33.7028 14.424 33.3348 13.48 32.5988 12.808C31.8948 12.136 30.8228 11.8 29.3828 11.8C27.9428 11.8 26.8228 12.184 26.0228 12.952C25.2228 13.72 24.8228 14.776 24.8228 16.12H19.0628C19.0628 14.744 19.3028 13.48 19.7828 12.328C20.2948 11.144 20.9988 10.12 21.8948 9.256C22.7908 8.392 23.8628 7.72 25.1108 7.24C26.3908 6.76 27.8148 6.52 29.3828 6.52C31.0148 6.52 32.4548 6.744 33.7028 7.192C34.9828 7.64 36.0708 8.264 36.9668 9.064C37.8628 9.864 38.5348 10.808 38.9828 11.896C39.4628 12.984 39.7028 14.152 39.7028 15.4C39.7028 16.552 39.4148 17.688 38.8388 18.808C38.2628 19.896 37.6228 20.888 36.9188 21.784C36.0868 22.84 35.1748 23.832 34.1828 24.76L27.7028 31.48H39.4628Z" fill="url(#paint0_linear)"/>
<path d="M11.52 13L10.92 15.88H13.8L13.32 18.04H10.56L9.72 22H7.56L8.4 18.04H5.28L4.44 22H2.28L3.12 18.04H0.24L0.72 15.88H3.48L4.08 13H1.2L1.68 10.84H4.44L5.28 6.88H7.44L6.6 10.84H9.72L10.56 6.88H12.72L11.88 10.84H14.76L14.28 13H11.52ZM9.36 13H6.24L5.64 15.88H8.76L9.36 13Z" fill="url(#paint1_linear)"/>
<defs>
<linearGradient id="paint0_linear" x1="29.5" y1="0" x2="29.5" y2="55" gradientUnits="userSpaceOnUse">
<stop stop-color="white"/>
<stop offset="1" stop-color="#5E5E5E"/>
</linearGradient>
<linearGradient id="paint1_linear" x1="7.5" y1="3" x2="7.5" y2="31" gradientUnits="userSpaceOnUse">
<stop stop-color="white"/>
<stop offset="1" stop-color="#5E5E5E"/>
</linearGradient>
</defs>
</svg>
