<svg width="42" height="55" viewBox="0 0 42 55" fill="none" xmlns="http://www.w3.org/2000/svg">
<path d="M40.6628 31.48H37.5428V37H31.7828V31.48H18.3428V26.44L30.8228 6.76H37.5428V25.96H40.6628V31.48ZM31.7828 25.96V14.68L24.5828 25.96H31.7828Z" fill="#373C4D"/>
<path d="M11.52 13L10.92 15.88H13.8L13.32 18.04H10.56L9.72 22H7.56L8.4 18.04H5.28L4.44 22H2.28L3.12 18.04H0.24L0.72 15.88H3.48L4.08 13H1.2L1.68 10.84H4.44L5.28 6.88H7.44L6.6 10.84H9.72L10.56 6.88H12.72L11.88 10.84H14.76L14.28 13H11.52ZM9.36 13H6.24L5.64 15.88H8.76L9.36 13Z" fill="#373C4D"/>
</svg>
