<svg width="41" height="55" viewBox="0 0 41 55" fill="none" xmlns="http://www.w3.org/2000/svg">
<path d="M17.9456 15.16C18.0096 14.008 18.2976 12.92 18.8096 11.896C19.3216 10.84 20.0256 9.928 20.9216 9.16C21.8496 8.36 22.9216 7.72 24.1376 7.24C25.3856 6.76 26.7616 6.52 28.2656 6.52C29.7696 6.52 31.1296 6.76 32.3456 7.24C33.5936 7.688 34.6656 8.312 35.5616 9.112C36.4576 9.88 37.1456 10.776 37.6256 11.8C38.1056 12.792 38.3456 13.832 38.3456 14.92C38.3456 16.008 38.1376 16.952 37.7216 17.752C37.3376 18.52 36.9056 19.16 36.4256 19.672C35.8496 20.248 35.2096 20.744 34.5056 21.16C35.3376 21.576 36.0896 22.12 36.7616 22.792C37.3376 23.368 37.8656 24.136 38.3456 25.096C38.8256 26.056 39.0656 27.224 39.0656 28.6C39.0656 29.688 38.8096 30.744 38.2976 31.768C37.7856 32.792 37.0656 33.72 36.1376 34.552C35.2096 35.352 34.0896 36.008 32.7776 36.52C31.4976 37 30.0736 37.24 28.5056 37.24C26.8096 37.24 25.3056 37.016 23.9936 36.568C22.6816 36.12 21.5616 35.496 20.6336 34.696C19.7376 33.896 19.0336 32.952 18.5216 31.864C18.0416 30.776 17.7696 29.608 17.7056 28.36H23.4656C23.5296 28.776 23.6896 29.208 23.9456 29.656C24.2016 30.072 24.5376 30.456 24.9536 30.808C25.3696 31.128 25.8496 31.4 26.3936 31.624C26.9696 31.848 27.5936 31.96 28.2656 31.96C29.7056 31.96 30.8576 31.56 31.7216 30.76C32.6176 29.928 33.0656 28.968 33.0656 27.88C33.0656 26.792 32.6496 25.88 31.8176 25.144C31.0176 24.408 29.8336 24.04 28.2656 24.04H25.6256V19.24H28.0256C29.5936 19.24 30.7456 18.92 31.4816 18.28C32.2176 17.608 32.5856 16.728 32.5856 15.64C32.5856 14.552 32.2016 13.64 31.4336 12.904C30.6656 12.168 29.6096 11.8 28.2656 11.8C26.9216 11.8 25.8496 12.152 25.0496 12.856C24.2816 13.56 23.8336 14.328 23.7056 15.16H17.9456Z" fill="url(#paint0_linear)"/>
<path d="M11.52 13L10.92 15.88H13.8L13.32 18.04H10.56L9.72 22H7.56L8.4 18.04H5.28L4.44 22H2.28L3.12 18.04H0.24L0.72 15.88H3.48L4.08 13H1.2L1.68 10.84H4.44L5.28 6.88H7.44L6.6 10.84H9.72L10.56 6.88H12.72L11.88 10.84H14.76L14.28 13H11.52ZM9.36 13H6.24L5.64 15.88H8.76L9.36 13Z" fill="url(#paint1_linear)"/>
<defs>
<linearGradient id="paint0_linear" x1="28.5" y1="0" x2="28.5" y2="55" gradientUnits="userSpaceOnUse">
<stop stop-color="#DF7D46"/>
<stop offset="1" stop-color="#572A00"/>
</linearGradient>
<linearGradient id="paint1_linear" x1="7.5" y1="3" x2="7.5" y2="31" gradientUnits="userSpaceOnUse">
<stop stop-color="#DF7D46"/>
<stop offset="1" stop-color="#572A00"/>
</linearGradient>
</defs>
</svg>
