<svg width="42" height="55" viewBox="0 0 42 55" fill="none" xmlns="http://www.w3.org/2000/svg">
<path d="M30.2313 16.36C31.7353 16.36 33.1113 16.616 34.3593 17.128C35.6393 17.64 36.7273 18.36 37.6233 19.288C38.5513 20.184 39.2713 21.272 39.7833 22.552C40.2953 23.8 40.5513 25.176 40.5513 26.68C40.5513 28.184 40.2793 29.576 39.7353 30.856C39.1913 32.136 38.4233 33.256 37.4313 34.216C36.4713 35.144 35.3193 35.88 33.9753 36.424C32.6313 36.968 31.1433 37.24 29.5113 37.24C28.0073 37.24 26.6313 37 25.3833 36.52C24.1353 36.04 23.0473 35.416 22.1193 34.648C21.2233 33.848 20.5033 32.936 19.9593 31.912C19.4153 30.856 19.0793 29.752 18.9513 28.6H24.7113C24.7753 28.952 24.9353 29.336 25.1913 29.752C25.4473 30.136 25.7833 30.504 26.1993 30.856C26.6153 31.176 27.0953 31.448 27.6393 31.672C28.2153 31.864 28.8393 31.96 29.5113 31.96C31.0793 31.96 32.3433 31.48 33.3033 30.52C34.2953 29.528 34.7913 28.248 34.7913 26.68C34.7913 25.112 34.2953 23.848 33.3033 22.888C32.3433 21.896 31.0793 21.4 29.5113 21.4C28.6473 21.4 27.9113 21.576 27.3033 21.928C26.6953 22.248 26.1993 22.6 25.8153 22.984C25.3673 23.432 24.9993 23.944 24.7113 24.52H19.6713L21.5913 6.76H38.3913V12.28H26.3913L25.6713 17.8C26.0873 17.544 26.5513 17.304 27.0633 17.08C27.4793 16.92 27.9593 16.76 28.5033 16.6C29.0473 16.44 29.6233 16.36 30.2313 16.36Z" fill="#373C4D"/>
<path d="M11.52 13L10.92 15.88H13.8L13.32 18.04H10.56L9.72 22H7.56L8.4 18.04H5.28L4.44 22H2.28L3.12 18.04H0.24L0.72 15.88H3.48L4.08 13H1.2L1.68 10.84H4.44L5.28 6.88H7.44L6.6 10.84H9.72L10.56 6.88H12.72L11.88 10.84H14.76L14.28 13H11.52ZM9.36 13H6.24L5.64 15.88H8.76L9.36 13Z" fill="#373C4D"/>
</svg>
