<svg width="16" height="16" viewBox="0 0 16 16" fill="none" xmlns="http://www.w3.org/2000/svg">
<rect width="16" height="16" rx="2" fill="#29ABFF"/>
<path d="M6.57327 11.9999C6.48186 11.9996 6.39148 11.9806 6.30776 11.9439C6.22404 11.9072 6.14876 11.8536 6.0866 11.7866L2.8466 8.33994C2.72549 8.21087 2.66061 8.03897 2.66623 7.86206C2.67186 7.68515 2.74753 7.51772 2.8766 7.39661C3.00567 7.27549 3.17757 7.21061 3.35448 7.21624C3.53139 7.22186 3.69882 7.29753 3.81994 7.42661L6.5666 10.3533L12.1733 4.21994C12.2302 4.14909 12.3009 4.09062 12.3813 4.04812C12.4616 4.00562 12.5497 3.97998 12.6403 3.97279C12.7309 3.9656 12.822 3.97701 12.908 4.00631C12.994 4.03561 13.0732 4.08218 13.1405 4.14317C13.2079 4.20416 13.2621 4.27828 13.2997 4.36097C13.3374 4.44366 13.3578 4.53318 13.3596 4.62403C13.3614 4.71488 13.3447 4.80515 13.3103 4.88928C13.276 4.97341 13.2248 5.04964 13.1599 5.11327L7.0666 11.7799C7.00503 11.8482 6.93001 11.9029 6.84626 11.9408C6.76251 11.9787 6.67184 11.9988 6.57994 11.9999H6.57327Z" fill="white"/>
</svg>
