<svg width="31" height="30" viewBox="0 0 31 30" fill="none" xmlns="http://www.w3.org/2000/svg">
<path d="M13.2806 13.3115C12.5816 13.3115 12.0299 13.9246 12.0299 14.6726C12.0299 15.4206 12.5939 16.0337 13.2806 16.0337C13.9795 16.0337 14.5313 15.4206 14.5313 14.6726C14.5436 13.9246 13.9795 13.3115 13.2806 13.3115ZM17.7562 13.3115C17.0573 13.3115 16.5055 13.9246 16.5055 14.6726C16.5055 15.4206 17.0695 16.0337 17.7562 16.0337C18.4551 16.0337 19.0069 15.4206 19.0069 14.6726C19.0069 13.9246 18.4551 13.3115 17.7562 13.3115Z" fill="white"/>
<path d="M23.7155 3.02393H7.2845C5.8989 3.02393 4.77081 4.15202 4.77081 5.54988V22.128C4.77081 23.5259 5.8989 24.654 7.2845 24.654H21.1895L20.5397 22.3855L22.1092 23.8447L23.5929 25.218L26.2292 27.5478V5.54988C26.2292 4.15202 25.1011 3.02393 23.7155 3.02393ZM18.9824 19.038C18.9824 19.038 18.541 18.5107 18.1731 18.0448C19.7794 17.5911 20.3925 16.5856 20.3925 16.5856C19.8898 16.9167 19.4116 17.1497 18.9824 17.3091C18.3693 17.5666 17.7807 17.7382 17.2044 17.8363C16.0273 18.0571 14.9482 17.9957 14.0286 17.8241C13.3296 17.6892 12.7288 17.493 12.2261 17.2968C11.944 17.1865 11.6375 17.0516 11.3309 16.8799C11.2942 16.8554 11.2574 16.8431 11.2206 16.8186C11.1961 16.8063 11.1838 16.7941 11.1715 16.7818C10.9508 16.6592 10.8282 16.5734 10.8282 16.5734C10.8282 16.5734 11.4168 17.5543 12.974 18.0203C12.6062 18.4862 12.1525 19.038 12.1525 19.038C9.4426 18.9522 8.4126 17.1742 8.4126 17.1742C8.4126 13.2259 10.1783 10.0255 10.1783 10.0255C11.944 8.7012 13.6239 8.73799 13.6239 8.73799L13.7465 8.88513C11.5394 9.52275 10.5217 10.4914 10.5217 10.4914C10.5217 10.4914 10.7914 10.3443 11.2451 10.1358C12.5571 9.55954 13.5994 9.40013 14.0286 9.36335C14.1021 9.35108 14.1634 9.33882 14.237 9.33882C14.985 9.24073 15.8311 9.2162 16.7139 9.3143C17.8788 9.44918 19.1295 9.79251 20.4048 10.4914C20.4048 10.4914 19.4361 9.5718 17.3516 8.93418L17.5232 8.73799C17.5232 8.73799 19.2031 8.7012 20.9688 10.0255C20.9688 10.0255 22.7345 13.2259 22.7345 17.1742C22.7345 17.1742 21.6923 18.9522 18.9824 19.038Z" fill="white"/>
</svg>
