<svg width="34" height="34" viewBox="0 0 34 34" fill="none" xmlns="http://www.w3.org/2000/svg">
<path d="M25.5 4.25H8.5C7.37283 4.25 6.29183 4.69777 5.4948 5.4948C4.69777 6.29183 4.25 7.37283 4.25 8.5V25.5C4.25 26.6272 4.69777 27.7082 5.4948 28.5052C6.29183 29.3022 7.37283 29.75 8.5 29.75H25.5C26.6272 29.75 27.7082 29.3022 28.5052 28.5052C29.3022 27.7082 29.75 26.6272 29.75 25.5V8.5C29.75 7.37283 29.3022 6.29183 28.5052 5.4948C27.7082 4.69777 26.6272 4.25 25.5 4.25ZM11.3333 9.91667C11.7536 9.91667 12.1645 10.0413 12.5139 10.2748C12.8634 10.5083 13.1357 10.8402 13.2966 11.2285C13.4574 11.6168 13.4995 12.044 13.4175 12.4562C13.3355 12.8684 13.1331 13.2471 12.8359 13.5443C12.5387 13.8415 12.1601 14.0438 11.7479 14.1258C11.3357 14.2078 10.9084 14.1657 10.5201 14.0049C10.1318 13.8441 9.79996 13.5717 9.56646 13.2223C9.33296 12.8728 9.20833 12.462 9.20833 12.0417C9.20833 11.4781 9.43222 10.9376 9.83073 10.5391C10.2292 10.1405 10.7697 9.91667 11.3333 9.91667ZM26.9167 25.2592C26.948 25.6667 26.8164 26.07 26.5509 26.3807C26.2853 26.6914 25.9074 26.8841 25.5 26.9167H8.5L19.2242 17.255C19.4042 17.0907 19.6392 16.9997 19.8829 16.9997C20.1267 16.9997 20.3616 17.0907 20.5417 17.255L26.9167 23.6017V25.2592Z" fill="#484D62"/>
</svg>
