<svg width="22" height="22" viewBox="0 0 22 22" fill="none" xmlns="http://www.w3.org/2000/svg">
<path d="M11 5.28756C7.85015 5.28756 5.28756 7.85015 5.28756 11C5.28756 14.1498 7.85015 16.7102 11 16.7102C14.1498 16.7102 16.7102 14.1476 16.7102 11C16.7124 7.85015 14.1498 5.28756 11 5.28756ZM11 14.5325C9.05136 14.5325 7.46754 12.9486 7.46754 11C7.46754 9.05136 9.05136 7.46754 11 7.46754C12.9486 7.46754 14.5325 9.05136 14.5325 11C14.5325 12.9486 12.9486 14.5325 11 14.5325ZM15.6692 0H6.33084C2.84065 0 0 2.84065 0 6.33084V15.6692C0 19.1594 2.84065 22 6.33084 22H15.6692C19.1594 22 22 19.1594 22 15.6692V6.33084C22 2.84065 19.1616 0 15.6692 0ZM19.8222 15.6692C19.8222 17.9581 17.9581 19.82 15.6692 19.82H6.33084C4.04186 19.82 2.17998 17.9581 2.17998 15.6692V6.33084C2.17998 4.04186 4.04186 2.17998 6.33084 2.17998H15.6692C17.9581 2.17998 19.82 4.04186 19.82 6.33084V15.6692H19.8222ZM16.7903 3.63701C15.9672 3.63701 15.2954 4.30657 15.2954 5.13185C15.2954 5.9549 15.965 6.62669 16.7903 6.62669C17.6133 6.62669 18.2851 5.95713 18.2851 5.13185C18.2851 4.30657 17.6133 3.63701 16.7903 3.63701Z" fill="white"/>
</svg>
