<svg width="37" height="37" viewBox="0 0 37 37" fill="none" xmlns="http://www.w3.org/2000/svg">
<g clip-path="url(#clip0)">
<path d="M27.6923 6.15383H26.1539V4.61537C26.1539 4.20734 25.9918 3.81603 25.7033 3.52751C25.4147 3.23899 25.0234 3.0769 24.6154 3.0769C24.2074 3.0769 23.8161 3.23899 23.5275 3.52751C23.239 3.81603 23.0769 4.20734 23.0769 4.61537V6.15383H13.8462V4.61537C13.8462 4.20734 13.6841 3.81603 13.3956 3.52751C13.107 3.23899 12.7157 3.0769 12.3077 3.0769C11.8997 3.0769 11.5084 3.23899 11.2199 3.52751C10.9313 3.81603 10.7692 4.20734 10.7692 4.61537V6.15383H9.23079C8.00671 6.15383 6.83277 6.64009 5.96722 7.50564C5.10166 8.37119 4.6154 9.54514 4.6154 10.7692V29.2307C4.6154 30.4548 5.10166 31.6288 5.96722 32.4943C6.83277 33.3599 8.00671 33.8461 9.23079 33.8461H27.6923C28.9164 33.8461 30.0903 33.3599 30.9559 32.4943C31.8214 31.6288 32.3077 30.4548 32.3077 29.2307V10.7692C32.3077 9.54514 31.8214 8.37119 30.9559 7.50564C30.0903 6.64009 28.9164 6.15383 27.6923 6.15383ZM12.3077 26.1538C12.0034 26.1538 11.706 26.0636 11.453 25.8946C11.2 25.7255 11.0028 25.4852 10.8864 25.2041C10.7699 24.923 10.7394 24.6137 10.7988 24.3152C10.8582 24.0168 11.0047 23.7427 11.2199 23.5275C11.435 23.3124 11.7091 23.1658 12.0076 23.1065C12.306 23.0471 12.6153 23.0776 12.8965 23.194C13.1776 23.3105 13.4178 23.5076 13.5869 23.7606C13.7559 24.0136 13.8462 24.3111 13.8462 24.6154C13.8462 25.0234 13.6841 25.4147 13.3956 25.7032C13.107 25.9917 12.7157 26.1538 12.3077 26.1538ZM24.6154 26.1538H18.4616C18.0535 26.1538 17.6622 25.9917 17.3737 25.7032C17.0852 25.4147 16.9231 25.0234 16.9231 24.6154C16.9231 24.2073 17.0852 23.816 17.3737 23.5275C17.6622 23.239 18.0535 23.0769 18.4616 23.0769H24.6154C25.0234 23.0769 25.4147 23.239 25.7033 23.5275C25.9918 23.816 26.1539 24.2073 26.1539 24.6154C26.1539 25.0234 25.9918 25.4147 25.7033 25.7032C25.4147 25.9917 25.0234 26.1538 24.6154 26.1538ZM29.2308 16.9231H7.69233V10.7692C7.69233 10.3612 7.85441 9.96987 8.14293 9.68136C8.43145 9.39284 8.82276 9.23075 9.23079 9.23075H10.7692V10.7692C10.7692 11.1772 10.9313 11.5686 11.2199 11.8571C11.5084 12.1456 11.8997 12.3077 12.3077 12.3077C12.7157 12.3077 13.107 12.1456 13.3956 11.8571C13.6841 11.5686 13.8462 11.1772 13.8462 10.7692V9.23075H23.0769V10.7692C23.0769 11.1772 23.239 11.5686 23.5275 11.8571C23.8161 12.1456 24.2074 12.3077 24.6154 12.3077C25.0234 12.3077 25.4147 12.1456 25.7033 11.8571C25.9918 11.5686 26.1539 11.1772 26.1539 10.7692V9.23075H27.6923C28.1004 9.23075 28.4917 9.39284 28.7802 9.68136C29.0687 9.96987 29.2308 10.3612 29.2308 10.7692V16.9231Z" fill="url(#paint0_linear)"/>
</g>
<defs>
<linearGradient id="paint0_linear" x1="18.4616" y1="3.0769" x2="18.4616" y2="33.8461" gradientUnits="userSpaceOnUse">
<stop stop-color="#6DC6FF"/>
<stop offset="1" stop-color="#29ABFF"/>
</linearGradient>
<clipPath id="clip0">
<rect width="36.9231" height="36.9231" fill="white"/>
</clipPath>
</defs>
</svg>
