<svg width="31" height="31" viewBox="0 0 31 31" fill="none" xmlns="http://www.w3.org/2000/svg">
<path d="M17.2567 21.9581C17.0828 21.9574 16.9107 21.9216 16.7509 21.8528C16.5911 21.784 16.4468 21.6836 16.3267 21.5577L11.3409 16.391C11.1042 16.1496 10.9717 15.8249 10.9717 15.4868C10.9717 15.1487 11.1042 14.8241 11.3409 14.5827L16.5076 9.416C16.628 9.29557 16.771 9.20004 16.9283 9.13486C17.0857 9.06968 17.2543 9.03613 17.4247 9.03613C17.595 9.03613 17.7636 9.06968 17.921 9.13486C18.0783 9.20004 18.2213 9.29557 18.3417 9.416C18.4622 9.53643 18.5577 9.67941 18.6229 9.83676C18.6881 9.99412 18.7216 10.1628 18.7216 10.3331C18.7216 10.5034 18.6881 10.6721 18.6229 10.8294C18.5577 10.9868 18.4622 11.1297 18.3417 11.2502L14.0792 15.4998L18.1867 19.7623C18.4273 20.0043 18.5624 20.3316 18.5624 20.6729C18.5624 21.0141 18.4273 21.3415 18.1867 21.5835C18.0645 21.7048 17.9193 21.8004 17.7596 21.8647C17.5999 21.929 17.4289 21.9608 17.2567 21.9581Z" fill="white"/>
</svg>
