<svg width="31" height="31" viewBox="0 0 31 31" fill="none" xmlns="http://www.w3.org/2000/svg">
<path d="M13.7433 21.9581C13.9172 21.9574 14.0893 21.9216 14.2491 21.8528C14.4089 21.784 14.5532 21.6836 14.6733 21.5577L19.6591 16.391C19.8958 16.1496 20.0283 15.8249 20.0283 15.4868C20.0283 15.1487 19.8958 14.8241 19.6591 14.5827L14.4924 9.416C14.372 9.29557 14.229 9.20004 14.0717 9.13486C13.9143 9.06968 13.7457 9.03613 13.5753 9.03613C13.405 9.03613 13.2364 9.06968 13.079 9.13486C12.9217 9.20004 12.7787 9.29557 12.6583 9.416C12.5378 9.53643 12.4423 9.67941 12.3771 9.83676C12.3119 9.99412 12.2784 10.1628 12.2784 10.3331C12.2784 10.5034 12.3119 10.6721 12.3771 10.8294C12.4423 10.9868 12.5378 11.1297 12.6583 11.2502L16.9208 15.4998L12.8133 19.7623C12.5727 20.0043 12.4376 20.3316 12.4376 20.6729C12.4376 21.0141 12.5727 21.3415 12.8133 21.5835C12.9355 21.7048 13.0807 21.8004 13.2404 21.8647C13.4001 21.929 13.5711 21.9608 13.7433 21.9581Z" fill="white"/>
</svg>
