<svg width="37" height="37" viewBox="0 0 37 37" fill="none" xmlns="http://www.w3.org/2000/svg">
<g clip-path="url(#clip0)">
<path d="M33.9941 18.335L23.8291 8.18581C23.5702 7.92538 23.2288 7.76306 22.8633 7.72665L8.05915 6.33331C7.82724 6.31199 7.59348 6.34208 7.37454 6.42145C7.15559 6.50081 6.95685 6.6275 6.79248 6.79248C6.6275 6.95685 6.50081 7.15559 6.42145 7.37454C6.34208 7.59348 6.31199 7.82724 6.33331 8.05915L7.72665 22.8633C7.76306 23.2288 7.92538 23.5702 8.18581 23.8291L18.335 33.9941C18.8793 34.531 19.6129 34.8324 20.3775 34.8333C21.1372 34.8317 21.8656 34.5301 22.4041 33.9941L33.9941 22.4041C34.5327 21.864 34.8351 21.1323 34.8351 20.3696C34.8351 19.6068 34.5327 18.8751 33.9941 18.335ZM18.3033 18.335C17.9713 18.6674 17.5481 18.8939 17.0873 18.9858C16.6265 19.0777 16.1488 19.0308 15.7147 18.8511C15.2806 18.6715 14.9095 18.3671 14.6484 17.9764C14.3873 17.5858 14.2479 17.1265 14.2479 16.6566C14.2479 16.1868 14.3873 15.7275 14.6484 15.3369C14.9095 14.9462 15.2806 14.6418 15.7147 14.4621C16.1488 14.2825 16.6265 14.2356 17.0873 14.3275C17.5481 14.4194 17.9713 14.6459 18.3033 14.9783C18.7423 15.4203 18.9886 16.0179 18.9886 16.6408C18.9886 17.2637 18.7423 17.8614 18.3033 18.3033V18.335Z" fill="url(#paint0_linear)"/>
</g>
<defs>
<linearGradient id="paint0_linear" x1="20.5809" y1="6.32666" x2="20.5809" y2="34.8333" gradientUnits="userSpaceOnUse">
<stop stop-color="#78CAFF"/>
<stop offset="1" stop-color="#29ABFF"/>
</linearGradient>
<clipPath id="clip0">
<rect width="36.9231" height="36.9231" fill="white"/>
</clipPath>
</defs>
</svg>
