<svg width="37" height="37" viewBox="0 0 37 37" fill="none" xmlns="http://www.w3.org/2000/svg">
<path d="M30.9539 10.3229L26.6001 5.96908C25.7354 5.10328 24.5622 4.61631 23.3386 4.61523H13.5847C12.361 4.61631 11.1879 5.10328 10.3232 5.96908L5.96932 10.3229C5.10352 11.1876 4.61656 12.3608 4.61548 13.5845V27.6922C4.61548 28.9162 5.10174 30.0902 5.96729 30.9557C6.83285 31.8213 8.00679 32.3075 9.23086 32.3075H27.6924C28.9165 32.3075 30.0904 31.8213 30.956 30.9557C31.8215 30.0902 32.3078 28.9162 32.3078 27.6922V13.5845C32.3067 12.3608 31.8197 11.1876 30.9539 10.3229ZM18.4616 24.6152C16.8295 24.6152 15.2643 23.9669 14.1102 22.8128C12.9561 21.6587 12.3078 20.0935 12.3078 18.4614C12.3078 18.0534 12.4699 17.662 12.7584 17.3735C13.0469 17.085 13.4382 16.9229 13.8462 16.9229C14.2543 16.9229 14.6456 17.085 14.9341 17.3735C15.2226 17.662 15.3847 18.0534 15.3847 18.4614C15.3847 19.2774 15.7089 20.0601 16.2859 20.6371C16.863 21.2141 17.6456 21.5383 18.4616 21.5383C19.2777 21.5383 20.0603 21.2141 20.6373 20.6371C21.2144 20.0601 21.5386 19.2774 21.5386 18.4614C21.5386 18.0534 21.7006 17.662 21.9892 17.3735C22.2777 17.085 22.669 16.9229 23.077 16.9229C23.485 16.9229 23.8764 17.085 24.1649 17.3735C24.4534 17.662 24.6155 18.0534 24.6155 18.4614C24.6155 20.0935 23.9671 21.6587 22.8131 22.8128C21.659 23.9669 20.0937 24.6152 18.4616 24.6152ZM9.86163 10.7691L12.4924 8.13831C12.7872 7.85718 13.1774 7.69782 13.5847 7.69216H23.3386C23.7459 7.69782 24.136 7.85718 24.4309 8.13831L27.0616 10.7691H9.86163Z" fill="url(#paint0_linear)"/>
<defs>
<linearGradient id="paint0_linear" x1="18.4616" y1="4.61523" x2="18.4616" y2="32.3075" gradientUnits="userSpaceOnUse">
<stop stop-color="#58FF9B"/>
<stop offset="1" stop-color="#00D971"/>
</linearGradient>
</defs>
</svg>
