<svg width="36" height="36" viewBox="0 0 36 36" fill="none" xmlns="http://www.w3.org/2000/svg">
<path fill-rule="evenodd" clip-rule="evenodd" d="M18 15.7501L30.765 10.3951C30.5502 10.1565 30.2901 9.96272 30 9.82513L19.2 4.77013C18.8249 4.59258 18.415 4.50049 18 4.50049C17.585 4.50049 17.1751 4.59258 16.8 4.77013L5.99999 9.82513C5.70983 9.96272 5.44982 10.1565 5.23499 10.3951L18 15.7501ZM16.875 17.7451L4.5 12.5401V24.1351C4.50652 24.6186 4.65121 25.0902 4.91699 25.4942C5.18277 25.8982 5.55855 26.2177 6 26.4151L16.785 31.5001H16.875V17.7451ZM19.125 31.5001V17.7451L31.5 12.5401V24.1501C31.4906 24.6311 31.3446 25.0994 31.079 25.5005C30.8134 25.9016 30.4392 26.2188 30 26.4151L19.2 31.5001H19.125Z" fill="url(#paint0_linear)"/>
<defs>
<linearGradient id="paint0_linear" x1="18" y1="4.50049" x2="18" y2="31.5001" gradientUnits="userSpaceOnUse">
<stop stop-color="#A6FFFF"/>
<stop offset="1" stop-color="#75FFFF"/>
</linearGradient>
</defs>
</svg>
