<svg width="30" height="30" viewBox="0 0 30 30" fill="none" xmlns="http://www.w3.org/2000/svg">
<path d="M10.1 25C11.9484 25.0618 13.7904 24.7525 15.5172 24.0904C17.244 23.4282 18.8205 22.4266 20.1536 21.1448C21.4867 19.8629 22.5494 18.3269 23.2787 16.6273C24.0081 14.9278 24.3894 13.0994 24.4 11.25C25.2471 10.2018 25.8761 8.99478 26.25 7.69999C26.2779 7.5977 26.2757 7.48951 26.2435 7.38846C26.2114 7.28741 26.1507 7.19781 26.0688 7.13045C25.9869 7.06309 25.8873 7.02083 25.7819 7.00878C25.6766 6.99672 25.57 7.01537 25.475 7.06249C25.0319 7.27581 24.533 7.34472 24.0486 7.2595C23.5642 7.17429 23.1188 6.93925 22.775 6.58749C22.3362 6.10697 21.8054 5.71941 21.2141 5.44778C20.6227 5.17615 19.9829 5.02598 19.3325 5.00616C18.682 4.98635 18.0342 5.09729 17.4274 5.33242C16.8207 5.56754 16.2673 5.92207 15.8 6.37499C15.1603 6.99457 14.6917 7.76911 14.4398 8.62334C14.1879 9.47757 14.1613 10.3824 14.3625 11.25C10.175 11.5 7.30001 9.51249 5.00001 6.78749C4.93092 6.70925 4.84053 6.65281 4.73989 6.62508C4.63925 6.59735 4.53272 6.59953 4.43329 6.63134C4.33387 6.66316 4.24587 6.72324 4.18002 6.80424C4.11418 6.88524 4.07335 6.98367 4.06251 7.08749C3.62435 9.51802 3.94043 12.0244 4.96829 14.2701C5.99615 16.5157 7.68657 18.3931 9.81251 19.65C8.38706 21.2848 6.38527 22.3058 4.22501 22.5C4.10928 22.5192 4.00244 22.5741 3.91945 22.657C3.83646 22.7399 3.78148 22.8467 3.76219 22.9624C3.74291 23.0782 3.76028 23.197 3.81189 23.3024C3.8635 23.4077 3.94676 23.4943 4.05001 23.55C5.92941 24.4892 7.99905 24.9852 10.1 25Z" fill="white"/>
</svg>
