<svg width="462" height="559" viewBox="0 0 462 559" fill="none" xmlns="http://www.w3.org/2000/svg">
<g opacity="0.08" clip-path="url(#clip0)">
<path d="M446.595 437.646C443.621 430.477 440.266 423.155 436.454 415.527C430.582 403.781 423.948 391.73 416.399 379.298C428.142 351.84 435.234 321.865 436.53 290.441C436.682 286.78 436.835 283.119 436.835 279.457C436.835 275.796 436.759 272.135 436.606 268.474C434.624 222.635 420.441 179.922 397.26 143.388C392.38 135.76 387.119 128.362 381.552 121.269C353.111 85.497 315.366 57.5813 271.903 41.259C269.691 40.42 267.404 39.6573 265.116 38.8183C239.191 29.8944 211.435 25.013 182.536 25.013C153.637 25.013 125.881 29.9707 99.9555 38.8183C97.668 39.581 95.3804 40.42 93.1691 41.259C89.509 42.6319 85.9252 44.0811 82.3414 45.6065C76.0125 41.7929 69.8362 38.1318 63.6598 34.7759C-5.88163 -3.58913 -56.1314 -10.3774 -81.6757 15.1739C-103.484 36.9878 -100.739 75.0476 -81.5994 121.269C-78.6256 128.438 -75.2705 135.76 -71.4579 143.388C-65.5866 155.134 -58.9527 167.185 -51.4038 179.617C-63.1465 207.075 -70.2379 237.05 -71.5342 268.474C-71.6867 272.135 -71.8392 275.796 -71.8392 279.457C-71.8392 283.119 -71.763 286.856 -71.5342 290.441C-69.5517 336.28 -55.3689 378.993 -32.1884 415.527C-27.3083 423.155 -22.047 430.553 -16.4806 437.646C11.9612 473.418 49.7057 501.334 93.1691 517.656C95.3804 518.495 97.668 519.258 99.9555 520.097C125.881 529.021 153.637 533.902 182.536 533.902C211.435 533.902 239.191 528.944 265.116 520.097C267.404 519.334 269.691 518.495 271.903 517.656C275.487 516.359 278.994 514.91 282.425 513.461C329.244 541.834 372.097 558.996 404.657 558.996C421.89 558.996 436.225 554.19 446.747 543.665C468.403 521.927 465.81 483.791 446.595 437.646ZM72.9625 87.2512C68.6161 98.4632 64.7273 109.828 61.2197 121.269H27.9741C41.3943 108.074 56.4921 96.6327 72.9625 87.2512ZM8.14866 143.311H54.8909C45.8169 177.863 40.2505 213.177 38.268 248.643C18.6714 224.236 1.20977 200.211 -13.6593 177.1C-7.40665 165.202 -0.0865097 153.913 8.14866 143.311ZM-33.1797 144.532C-33.4084 144.15 -33.5609 143.693 -33.8659 143.311C-38.136 135.455 -41.8724 128.133 -45.1512 121.192C-67.4166 73.6748 -66.8066 47.2082 -58.2664 38.5895C-54.8351 35.1572 -48.735 33.0216 -39.6611 33.0216C-22.1232 33.0216 6.54736 41.0302 47.5707 63.6831C47.6469 63.6831 47.6469 63.7593 47.6469 63.7593C23.0939 79.1664 1.36227 98.6158 -16.6331 121.269C-22.2757 128.362 -27.4608 135.684 -32.3409 143.388C-32.5697 143.769 -32.8747 144.227 -33.1797 144.532C-33.1034 144.608 -33.1034 144.532 -33.1797 144.532ZM-28.9858 214.168C-16.7093 232.016 -3.06032 250.169 11.58 268.322H-38.441C-37.6023 249.635 -34.3234 231.482 -28.9858 214.168ZM-38.5173 290.441H29.8041C32.4729 293.568 35.0654 296.619 37.8105 299.746C39.2593 338.721 44.9781 377.544 54.8909 415.527H8.22491C-19.0731 380.747 -36.2297 337.501 -38.5173 290.441ZM27.8978 437.646H61.1435C64.651 449.087 68.6161 460.452 72.8862 471.664C56.4921 462.206 41.3943 450.765 27.8978 437.646ZM61.601 326.441C73.3437 339.255 85.4677 351.84 97.8204 364.196C115.511 381.891 133.887 399.129 152.34 415.527H77.69C69.6836 386.315 64.346 356.416 61.601 326.441ZM171.479 500.495C147.231 499.274 124.127 494.164 102.548 485.774C95.6092 469.986 89.5853 453.892 84.3239 437.646H171.479V500.495ZM171.479 388.298C154.628 373.272 137.853 357.332 121.23 340.78C104.607 324.153 88.7465 307.297 73.725 290.517H171.556L171.479 388.298ZM171.479 151.396V268.398H59.5422C60.4572 226.296 66.4811 184.27 77.69 143.311H161.795H171.479V151.396ZM171.479 108.531V121.192H134.116H84.3239C87.4503 111.506 90.8053 101.972 94.5417 92.514C97.058 85.9546 99.803 79.4714 102.624 72.9883C107.428 71.1578 112.232 69.4035 117.112 67.878C134.421 62.4627 152.722 59.183 171.556 58.2677V108.531H171.479ZM403.513 268.398H335.191H327.49C327.414 265.271 327.338 262.22 327.261 259.093C325.813 220.118 320.094 181.295 310.181 143.311H356.923C384.069 178.244 401.225 221.414 403.513 268.398ZM403.513 290.441C402.598 309.204 399.319 327.357 393.981 344.594C390.016 357.484 384.831 369.917 378.655 381.662C372.402 393.561 365.082 404.926 356.847 415.451H310.105C319.179 380.9 324.745 345.586 326.728 310.119C327.109 303.483 327.338 297 327.414 290.364H353.339H403.513V290.441ZM337.098 121.269H303.852C300.345 109.828 296.379 98.4632 292.109 87.2512C308.503 96.6327 323.601 108.074 337.098 121.269ZM193.516 58.344C217.764 59.5644 240.868 64.6746 262.448 73.0646C269.386 88.8529 275.41 104.946 280.672 121.192H193.516V58.344ZM193.516 170.541V143.311H212.655H287.306C295.312 172.6 300.726 202.422 303.471 232.474C304.538 244.372 305.225 256.423 305.453 268.398H291.347H193.516V170.541ZM193.516 500.495V450.384C211.74 465.028 229.888 478.605 247.731 490.961C230.498 496.3 212.35 499.579 193.516 500.495ZM270.53 466.248C257.567 457.477 244.3 447.867 230.956 437.57H280.748C277.622 447.257 274.19 456.791 270.53 466.248ZM203.2 415.527C199.997 412.858 196.719 410.188 193.516 407.442V290.441H305.453C304.538 332.543 298.514 374.569 287.306 415.527H203.2ZM303.852 437.646H337.098C323.677 450.765 308.503 462.206 292.033 471.664C296.379 460.375 300.268 449.087 303.852 437.646ZM423.262 520.249C413.349 530.165 379.722 529.478 317.349 495.156C317.272 495.156 317.272 495.079 317.272 495.079C341.825 479.672 363.557 460.223 381.552 437.57C387.195 430.477 392.38 423.155 397.26 415.451C397.489 415.07 397.794 414.612 398.099 414.154C398.099 414.231 398.175 414.231 398.175 414.231C398.404 414.612 398.557 415.07 398.862 415.451C403.132 423.307 406.868 430.629 410.147 437.57C432.488 485.164 431.802 511.707 423.262 520.249Z" fill="#131323"/>
</g>
<defs>
<clipPath id="clip0">
<rect width="559" height="559" fill="white" transform="translate(-97)"/>
</clipPath>
</defs>
</svg>
