<svg width="24" height="24" viewBox="0 0 24 24" fill="none" xmlns="http://www.w3.org/2000/svg">
<path d="M12 16.0003C11.7663 16.0007 11.5399 15.9194 11.36 15.7703L5.36 10.7703C5.15578 10.6005 5.02736 10.3566 5.00298 10.0922C4.9786 9.82777 5.06026 9.56449 5.23 9.36028C5.39974 9.15606 5.64365 9.02763 5.90808 9.00325C6.1725 8.97888 6.43578 9.06054 6.64 9.23028L12 13.7103L17.36 9.39028C17.4623 9.30721 17.58 9.24518 17.7063 9.20775C17.8327 9.17031 17.9652 9.15822 18.0962 9.17216C18.2272 9.1861 18.3542 9.2258 18.4698 9.28897C18.5855 9.35214 18.6875 9.43755 18.77 9.54028C18.8616 9.6431 18.9309 9.76372 18.9737 9.8946C19.0165 10.0255 19.0318 10.1638 19.0187 10.3008C19.0055 10.4379 18.9642 10.5708 18.8974 10.6911C18.8305 10.8115 18.7395 10.9167 18.63 11.0003L12.63 15.8303C12.4449 15.9558 12.2231 16.0156 12 16.0003Z" fill="#BFC3D3"/>
</svg>
