<svg width="49" height="26" viewBox="0 0 49 26" fill="none" xmlns="http://www.w3.org/2000/svg">
<path d="M46.1532 0H2.84685C2.47268 -3.29951e-07 2.10217 0.0737606 1.75653 0.217064C1.41089 0.360368 1.09689 0.570401 0.832487 0.835156C0.568084 1.09991 0.358466 1.41419 0.215621 1.76002C0.0727759 2.10586 -0.000494397 2.47645 2.51059e-06 2.85062V22.5101C2.51059e-06 23.2651 0.299937 23.9892 0.833824 24.5231C1.36771 25.057 2.09182 25.357 2.84685 25.357H46.1532C46.9082 25.357 47.6323 25.057 48.1662 24.5231C48.7001 23.9892 49 23.2651 49 22.5101V2.85062C49.0005 2.47645 48.9272 2.10586 48.7844 1.76002C48.6415 1.41419 48.4319 1.09991 48.1675 0.835156C47.9031 0.570401 47.5891 0.360368 47.2435 0.217064C46.8978 0.0737606 46.5273 -3.29951e-07 46.1532 0ZM3.66977 6.59475C4.67247 6.59475 5.6341 6.99307 6.34311 7.70208C7.05212 8.41109 7.45044 9.37272 7.45044 10.3754V11.4315C7.45044 12.0842 7.70975 12.7103 8.17132 13.1718C8.63288 13.6334 9.2589 13.8927 9.91166 13.8927H16.1548C16.4282 13.8927 16.6904 14.0013 16.8837 14.1946C17.0771 14.388 17.1857 14.6502 17.1857 14.9236V16.335H7.16059C6.23477 16.335 5.34686 15.9672 4.69221 15.3126C4.03755 14.6579 3.66977 13.77 3.66977 12.8442V6.59475ZM23.4074 20.5467C23.4057 21.0773 23.1942 21.5856 22.819 21.9608C22.4439 22.336 21.9355 22.5475 21.4049 22.5492H5.67479C5.14416 22.5462 4.63609 22.3342 4.26076 21.9591C3.88542 21.584 3.67308 21.076 3.66977 20.5454V18.766H19.6255V13.9242C19.6251 13.2717 19.3657 12.646 18.9041 12.1847C18.4426 11.7234 17.8168 11.4643 17.1642 11.4643H10.9186C10.6455 11.4643 10.3836 11.3558 10.1905 11.1627C9.99745 10.9696 9.88898 10.7077 9.88898 10.4346V9.02572H19.6255V6.59475H17.323C16.3203 6.59475 15.3587 6.19643 14.6497 5.48742C13.9407 4.7784 13.5424 3.81677 13.5424 2.81408H21.4087C21.9393 2.81574 22.4476 3.02725 22.8228 3.40243C23.198 3.77761 23.4095 4.28599 23.4112 4.81657L23.4074 20.5467ZM45.3353 15.6558C44.3052 15.6558 43.3173 15.2465 42.5889 14.5182C41.8605 13.7898 41.4513 12.8018 41.4513 11.7717V6.89846H39.0568L35.5748 12.2393L32.1017 6.89846L29.7072 6.91484V18.6349H32.4104V12.4283L35.5761 17.2298L38.7405 12.4283V19.386C38.7405 19.8022 38.6585 20.2143 38.4992 20.5987C38.3399 20.9832 38.1065 21.3325 37.8121 21.6267C37.5178 21.9209 37.1684 22.1543 36.7839 22.3134C36.3993 22.4726 35.9872 22.5544 35.5711 22.5542H27.5964C27.0656 22.5529 26.5569 22.3415 26.1814 21.9663C25.806 21.5911 25.5943 21.0825 25.5926 20.5517V5.085C25.5926 4.48338 25.8316 3.90641 26.257 3.481C26.6824 3.05559 27.2594 2.8166 27.861 2.8166H43.3252C43.8556 2.81957 44.3635 3.03142 44.7388 3.40625C45.1141 3.78108 45.3266 4.28869 45.3302 4.81909L45.3353 15.6558Z" fill="url(#paint0_linear)"/>
<defs>
<linearGradient id="paint0_linear" x1="2.51063e-06" y1="12.6804" x2="49" y2="12.6804" gradientUnits="userSpaceOnUse">
<stop stop-color="#29ABFF"/>
<stop offset="1" stop-color="#00FFFF"/>
</linearGradient>
</defs>
</svg>
